HIERARCHY
ROOT Hips
{
	OFFSET 0.000000 0.000000 0.000000
	CHANNELS 6 Xposition Yposition Zposition Xrotation Yrotation Zrotation
	JOINT LeftUpLeg_virtual
	{
		OFFSET 0.000000 0.000000 0.000000
		CHANNELS 3 Xrotation Yrotation Zrotation
		JOINT LeftUpLeg
		{
			OFFSET 11.394100 -6.187798 -0.413800
			CHANNELS 3 Xrotation Yrotation Zrotation
			JOINT LeftLeg
			{
				OFFSET 0.430247 -32.302673 3.732800
				CHANNELS 3 Xrotation Yrotation Zrotation
				JOINT LeftFoot
				{
					OFFSET -0.430247 -48.264931 -6.423300
					CHANNELS 3 Xrotation Yrotation Zrotation
					JOINT LeftToeBase
					{
						OFFSET 4.230900 -16.068199 23.438400
						CHANNELS 3 Xrotation Yrotation Zrotation
						JOINT LeftToe_End
						{
							OFFSET 4.510700 0.695400 19.974600
							CHANNELS 3 Xrotation Yrotation Zrotation
							End Site
							{
								OFFSET 0 0 0
							}
						}
					}
				}
			}
		}
	}
	JOINT RightUpLeg_virtual
	{
		OFFSET 0.000000 0.000000 0.000000
		CHANNELS 3 Xrotation Yrotation Zrotation
		JOINT RightUpLeg
		{
			OFFSET -11.333700 -6.187798 -0.413800
			CHANNELS 3 Xrotation Yrotation Zrotation
			JOINT RightLeg
			{
				OFFSET -0.430392 -32.302628 3.733000
				CHANNELS 3 Xrotation Yrotation Zrotation
				JOINT RightFoot
				{
					OFFSET 0.430392 -48.264973 -6.423500
					CHANNELS 3 Xrotation Yrotation Zrotation
					JOINT RightToeBase
					{
						OFFSET -4.230900 -16.068199 23.438400
						CHANNELS 3 Xrotation Yrotation Zrotation
						JOINT RightToe_End
						{
							OFFSET -4.510700 0.695400 19.974600
							CHANNELS 3 Xrotation Yrotation Zrotation
							End Site
							{
								OFFSET 0 0 0
							}
						}
					}
				}
			}
		}
	}
	JOINT Spine_virtual
	{
		OFFSET 0.000000 0.000000 0.000000
		CHANNELS 3 Xrotation Yrotation Zrotation
		JOINT Spine
		{
			OFFSET -0.002400 12.777504 0.315300
			CHANNELS 3 Xrotation Yrotation Zrotation
			JOINT Spine1
			{
				OFFSET -0.002067 5.816869 0.032633
				CHANNELS 3 Xrotation Yrotation Zrotation
				JOINT Spine1_split
				{
					OFFSET -0.002067 5.816869 0.032633
					CHANNELS 3 Xrotation Yrotation Zrotation
					JOINT Spine2
					{
						OFFSET -0.002067 5.816869 0.032633
						CHANNELS 3 Xrotation Yrotation Zrotation
						JOINT Neck_virtual
						{
							OFFSET 0.000000 0.000000 0.000000
							CHANNELS 3 Xrotation Yrotation Zrotation
							JOINT Neck
							{
								OFFSET -0.003700 21.199493 -0.826900
								CHANNELS 3 Xrotation Yrotation Zrotation
								JOINT Head
								{
									OFFSET 0.000000 20.442200 4.834800
									CHANNELS 3 Xrotation Yrotation Zrotation
									JOINT HeadTop_End
									{
										OFFSET 0.000000 34.668396 4.968400
										CHANNELS 3 Xrotation Yrotation Zrotation
										End Site
										{
											OFFSET 0 0 0
										}
									}
								}
							}
						}
						JOINT LeftShoulder_virtual
						{
							OFFSET 0.000000 0.000000 0.000000
							CHANNELS 3 Xrotation Yrotation Zrotation
							JOINT LeftShoulder
							{
								OFFSET 3.288150 8.794197 -1.372250
								CHANNELS 3 Xrotation Yrotation Zrotation
								JOINT LeftShoulder_split
								{
									OFFSET 3.288150 8.794197 -1.372250
									CHANNELS 3 Xrotation Yrotation Zrotation
									JOINT LeftArm
									{
										OFFSET 11.953299 -2.279007 -0.146200
										CHANNELS 3 Xrotation Yrotation Zrotation
										JOINT LeftForeArm
										{
											OFFSET 18.448900 0.000000 0.000000
											CHANNELS 3 Xrotation Yrotation Zrotation
											JOINT LeftHand
											{
												OFFSET 29.527798 0.000000 0.000000
												CHANNELS 3 Xrotation Yrotation Zrotation
												End Site
												{
													OFFSET 0 0 0
												}
											}
										}
									}
								}
							}
						}
						JOINT RightShoulder_virtual
						{
							OFFSET 0.000000 0.000000 0.000000
							CHANNELS 3 Xrotation Yrotation Zrotation
							JOINT RightShoulder
							{
								OFFSET -3.249400 8.794197 -1.372250
								CHANNELS 3 Xrotation Yrotation Zrotation
								JOINT RightShoulder_split
								{
									OFFSET -3.249400 8.794197 -1.372250
									CHANNELS 3 Xrotation Yrotation Zrotation
									JOINT RightArm
									{
										OFFSET -11.953299 -2.279007 -0.146200
										CHANNELS 3 Xrotation Yrotation Zrotation
										JOINT RightForeArm
										{
											OFFSET -18.448900 0.000000 0.000000
											CHANNELS 3 Xrotation Yrotation Zrotation
											JOINT RightHand
											{
												OFFSET -29.527802 0.000000 0.000000
												CHANNELS 3 Xrotation Yrotation Zrotation
												End Site
												{
													OFFSET 0 0 0
												}
											}
										}
									}
								}
							}
						}
					}
				}
			}
		}
	}
}
MOTION
Frames: 4
Frame Time: 0.03333333
8.257846 94.787743 -5.778435 0.000000 0.000000 0.000000 9.572096 -31.343499 -16.258973 -34.977573 -7.445012 25.228070 39.771997 3.682421 9.174732 -7.531595 27.938387 -16.027409 -0.188766 0.062273 -0.797819 0.000000 0.000000 0.000000 11.326391 -31.118847 -16.893233 -28.032917 1.472545 21.546233 11.076443 0.762265 3.983058 8.601610 12.198416 -6.742856 -3.172158 4.916280 -1.527237 0.000000 0.000000 0.000000 8.035768 -32.957684 -17.176479 17.054103 -5.113807 13.441719 14.053116 -0.537983 10.450277 1.564357 -1.233867 0.624557 0.000000 0.000000 0.000000 12.849908 -0.687368 9.437246 -9.103761 -6.065268 3.186729 36.757599 -14.507957 30.665145 0.000000 0.000000 0.000000 14.340407 -1.237099 9.642096 2.380404 -20.119640 -11.572318 0.946232 -1.236964 -0.417221 -35.519070 -27.339412 -57.113215 -0.933860 -15.023932 -1.470632 0.000000 0.000000 0.000000 12.365826 -1.069565 9.889401 2.465644 6.713004 11.480356 -4.677592 2.584921 -0.508313 0.487594 41.031043 26.839435 1.769451 22.872828 1.219889 0.000000 0.000000 0.000000 
8.121575 94.775787 -5.736961 0.000000 0.000000 0.000000 9.537476 -31.017255 -16.260951 -35.149605 -7.300601 25.392275 39.799003 3.616545 9.179510 -7.504916 27.653687 -16.029237 -0.126879 0.065608 -0.791741 0.000000 0.000000 0.000000 11.277946 -30.727846 -16.898901 -28.043818 1.383824 21.534487 11.258909 0.727478 3.987092 8.516634 12.035171 -6.865167 -3.202921 4.894096 -1.591922 0.000000 0.000000 0.000000 7.997829 -32.576642 -17.183626 16.958880 -5.172145 13.590576 13.953195 -0.600062 10.505847 1.549084 -1.237276 0.620327 0.000000 0.000000 0.000000 12.758857 -0.725252 9.488474 -8.985420 -6.010973 3.223384 36.913539 -14.654379 30.679622 0.000000 0.000000 0.000000 14.220639 -1.270728 9.675224 2.357324 -20.147514 -11.690795 0.901713 -1.268418 -0.387272 -35.207542 -27.674805 -57.377933 -1.027054 -15.204367 -1.499394 0.000000 0.000000 0.000000 12.274333 -1.104542 9.930962 2.597792 6.939537 10.940075 -4.581463 2.651904 -0.579879 0.822942 40.777240 27.122420 1.749763 23.369713 1.142496 0.000000 0.000000 0.000000 
7.969496 94.778038 -5.683418 0.000000 0.000000 0.000000 9.489732 -30.585310 -16.247362 -35.303984 -7.202627 25.502625 39.770037 3.534417 9.204331 -7.432611 27.311816 -16.049112 -0.064241 0.065954 -0.796846 0.000000 0.000000 0.000000 11.230071 -30.227634 -16.885947 -28.017426 1.342305 21.512932 11.426182 0.681642 3.971968 8.420232 11.810023 -7.004581 -3.216162 4.858131 -1.620080 0.000000 0.000000 0.000000 7.948890 -32.123350 -17.174325 16.853167 -5.226196 13.745625 13.846089 -0.660565 10.569434 1.528563 -1.249135 0.628649 0.000000 0.000000 0.000000 12.666919 -0.763239 9.548558 -8.878758 -5.973040 3.264037 37.067351 -14.819726 30.684399 0.000000 0.000000 0.000000 14.095081 -1.300345 9.717133 2.340079 -20.160323 -11.799065 0.867875 -1.299146 -0.368429 -34.808232 -27.953149 -57.634721 -1.127978 -15.392152 -1.529988 0.000000 0.000000 0.000000 12.178956 -1.139688 9.978315 2.740968 7.128040 10.394045 -4.482933 2.700204 -0.650197 1.164868 40.566105 27.404068 1.736705 23.880775 1.073670 0.000000 0.000000 0.000000 
7.803658 94.792496 -5.613350 0.000000 0.000000 0.000000 9.433708 -30.063798 -16.228564 -35.426391 -7.167368 25.562608 39.711833 3.462601 9.241949 -7.320899 26.957162 -16.100279 0.013316 0.067118 -0.818344 0.000000 0.000000 0.000000 11.179707 -29.629972 -16.868223 -27.949185 1.347932 21.484900 11.568298 0.614979 3.945137 8.303111 11.517301 -7.197247 -3.153601 4.809716 -1.608183 0.000000 0.000000 0.000000 7.894538 -31.610880 -17.155979 16.735365 -5.279612 13.909687 13.731861 -0.720139 10.640677 1.503097 -1.266492 0.624333 0.000000 0.000000 0.000000 12.573423 -0.802345 9.618185 -8.787769 -5.951880 3.307600 37.229377 -14.995993 30.680322 0.000000 0.000000 0.000000 13.963835 -1.327081 9.768568 2.331562 -20.152678 -11.885212 0.846557 -1.328140 -0.365221 -34.335074 -28.180780 -57.883463 -1.231269 -15.580006 -1.559764 0.000000 0.000000 0.000000 12.081916 -1.175773 10.031369 2.895292 7.274264 9.838056 -4.397550 2.738233 -0.705598 1.502112 40.394866 27.685308 1.728031 24.397676 1.017620 0.000000 0.000000 0.000000 
